<mxfile host="app.diagrams.net" modified="2020-10-02T14:27:55.012Z" agent="5.0 (Windows NT 10.0; Win64; x64) AppleWebKit/537.36 (KHTML, like Gecko) Chrome/85.0.4183.121 Safari/537.36" etag="rC0Na0mczS0t75qfi8lz" version="13.7.7" type="github">
  <diagram id="eotzvkIVNGdbmCRYKdDC" name="Page-1">
    <mxGraphModel dx="526" dy="482" grid="1" gridSize="10" guides="1" tooltips="1" connect="1" arrows="1" fold="1" page="1" pageScale="1" pageWidth="827" pageHeight="1169" math="0" shadow="0">
      <root>
        <mxCell id="0" />
        <mxCell id="1" parent="0" />
        <object label="Administrador" id="9wF3n-dVodhA5JEzQhGD-1">
          <mxCell style="shape=umlActor;verticalLabelPosition=bottom;verticalAlign=top;html=1;outlineConnect=0;" vertex="1" parent="1">
            <mxGeometry x="40" y="130" width="30" height="60" as="geometry" />
          </mxCell>
        </object>
        <mxCell id="9wF3n-dVodhA5JEzQhGD-4" value="Guerreiro" style="shape=umlActor;verticalLabelPosition=bottom;verticalAlign=top;html=1;outlineConnect=0;" vertex="1" parent="1">
          <mxGeometry x="310" y="130" width="30" height="60" as="geometry" />
        </mxCell>
        <mxCell id="9wF3n-dVodhA5JEzQhGD-9" value="Verificar Programação" style="rounded=1;whiteSpace=wrap;html=1;" vertex="1" parent="1">
          <mxGeometry x="160" y="140" width="120" height="60" as="geometry" />
        </mxCell>
        <mxCell id="9wF3n-dVodhA5JEzQhGD-10" value="" style="endArrow=none;html=1;" edge="1" parent="1">
          <mxGeometry width="50" height="50" relative="1" as="geometry">
            <mxPoint x="90" y="159.5" as="sourcePoint" />
            <mxPoint x="160" y="159.5" as="targetPoint" />
          </mxGeometry>
        </mxCell>
        <mxCell id="9wF3n-dVodhA5JEzQhGD-11" value="" style="endArrow=none;html=1;" edge="1" parent="1">
          <mxGeometry width="50" height="50" relative="1" as="geometry">
            <mxPoint x="120" y="159.5" as="sourcePoint" />
            <mxPoint x="120" y="230" as="targetPoint" />
            <Array as="points">
              <mxPoint x="120" y="190" />
            </Array>
          </mxGeometry>
        </mxCell>
        <mxCell id="9wF3n-dVodhA5JEzQhGD-12" value="" style="endArrow=none;html=1;" edge="1" parent="1">
          <mxGeometry width="50" height="50" relative="1" as="geometry">
            <mxPoint x="120" y="280" as="sourcePoint" />
            <mxPoint x="120" y="230" as="targetPoint" />
          </mxGeometry>
        </mxCell>
        <mxCell id="9wF3n-dVodhA5JEzQhGD-16" value="" style="endArrow=none;html=1;" edge="1" parent="1">
          <mxGeometry width="50" height="50" relative="1" as="geometry">
            <mxPoint x="120" y="239.5" as="sourcePoint" />
            <mxPoint x="160" y="239.5" as="targetPoint" />
          </mxGeometry>
        </mxCell>
        <mxCell id="9wF3n-dVodhA5JEzQhGD-17" value="Adicionar Sessão" style="rounded=1;whiteSpace=wrap;html=1;" vertex="1" parent="1">
          <mxGeometry x="160" y="210" width="120" height="60" as="geometry" />
        </mxCell>
        <mxCell id="9wF3n-dVodhA5JEzQhGD-18" value="" style="endArrow=none;html=1;" edge="1" parent="1">
          <mxGeometry width="50" height="50" relative="1" as="geometry">
            <mxPoint x="120" y="280" as="sourcePoint" />
            <mxPoint x="120" y="310" as="targetPoint" />
          </mxGeometry>
        </mxCell>
        <mxCell id="9wF3n-dVodhA5JEzQhGD-19" value="" style="endArrow=none;html=1;" edge="1" parent="1">
          <mxGeometry width="50" height="50" relative="1" as="geometry">
            <mxPoint x="120" y="300" as="sourcePoint" />
            <mxPoint x="160" y="300" as="targetPoint" />
          </mxGeometry>
        </mxCell>
        <mxCell id="9wF3n-dVodhA5JEzQhGD-21" value="Remover Sessão" style="rounded=1;whiteSpace=wrap;html=1;" vertex="1" parent="1">
          <mxGeometry x="160" y="280" width="120" height="60" as="geometry" />
        </mxCell>
        <mxCell id="9wF3n-dVodhA5JEzQhGD-22" value="" style="endArrow=none;html=1;" edge="1" parent="1">
          <mxGeometry width="50" height="50" relative="1" as="geometry">
            <mxPoint x="120" y="309.5" as="sourcePoint" />
            <mxPoint x="120" y="350" as="targetPoint" />
          </mxGeometry>
        </mxCell>
        <mxCell id="9wF3n-dVodhA5JEzQhGD-23" value="" style="endArrow=none;html=1;" edge="1" parent="1">
          <mxGeometry width="50" height="50" relative="1" as="geometry">
            <mxPoint x="120" y="350" as="sourcePoint" />
            <mxPoint x="120" y="370" as="targetPoint" />
          </mxGeometry>
        </mxCell>
        <mxCell id="9wF3n-dVodhA5JEzQhGD-25" value="" style="endArrow=none;html=1;" edge="1" parent="1">
          <mxGeometry width="50" height="50" relative="1" as="geometry">
            <mxPoint x="120" y="370" as="sourcePoint" />
            <mxPoint x="160" y="370" as="targetPoint" />
          </mxGeometry>
        </mxCell>
        <mxCell id="9wF3n-dVodhA5JEzQhGD-26" value="Verificar Ingresso" style="rounded=1;whiteSpace=wrap;html=1;" vertex="1" parent="1">
          <mxGeometry x="160" y="350" width="120" height="60" as="geometry" />
        </mxCell>
        <mxCell id="9wF3n-dVodhA5JEzQhGD-28" value="" style="endArrow=none;html=1;" edge="1" parent="1">
          <mxGeometry width="50" height="50" relative="1" as="geometry">
            <mxPoint x="360" y="159.5" as="sourcePoint" />
            <mxPoint x="400" y="159.5" as="targetPoint" />
          </mxGeometry>
        </mxCell>
        <mxCell id="9wF3n-dVodhA5JEzQhGD-29" value="" style="endArrow=none;html=1;" edge="1" parent="1">
          <mxGeometry width="50" height="50" relative="1" as="geometry">
            <mxPoint x="400" y="159.5" as="sourcePoint" />
            <mxPoint x="440" y="159.5" as="targetPoint" />
          </mxGeometry>
        </mxCell>
        <mxCell id="9wF3n-dVodhA5JEzQhGD-30" value="Escolher Filme" style="rounded=1;whiteSpace=wrap;html=1;" vertex="1" parent="1">
          <mxGeometry x="430" y="140" width="120" height="60" as="geometry" />
        </mxCell>
        <mxCell id="9wF3n-dVodhA5JEzQhGD-31" value="" style="endArrow=classic;html=1;" edge="1" parent="1">
          <mxGeometry relative="1" as="geometry">
            <mxPoint x="489.5" y="200" as="sourcePoint" />
            <mxPoint x="489.5" y="260" as="targetPoint" />
          </mxGeometry>
        </mxCell>
        <mxCell id="9wF3n-dVodhA5JEzQhGD-32" value="Include" style="edgeLabel;resizable=0;html=1;align=center;verticalAlign=middle;" connectable="0" vertex="1" parent="9wF3n-dVodhA5JEzQhGD-31">
          <mxGeometry relative="1" as="geometry" />
        </mxCell>
        <mxCell id="9wF3n-dVodhA5JEzQhGD-33" value="Escolher Sessão" style="rounded=1;whiteSpace=wrap;html=1;" vertex="1" parent="1">
          <mxGeometry x="430" y="260" width="120" height="60" as="geometry" />
        </mxCell>
        <mxCell id="9wF3n-dVodhA5JEzQhGD-34" value="" style="endArrow=classic;html=1;" edge="1" parent="1">
          <mxGeometry relative="1" as="geometry">
            <mxPoint x="490" y="320" as="sourcePoint" />
            <mxPoint x="490" y="380" as="targetPoint" />
          </mxGeometry>
        </mxCell>
        <mxCell id="9wF3n-dVodhA5JEzQhGD-35" value="Include" style="edgeLabel;resizable=0;html=1;align=center;verticalAlign=middle;" connectable="0" vertex="1" parent="9wF3n-dVodhA5JEzQhGD-34">
          <mxGeometry relative="1" as="geometry" />
        </mxCell>
        <mxCell id="9wF3n-dVodhA5JEzQhGD-36" value="Escolher Poltrona" style="rounded=1;whiteSpace=wrap;html=1;" vertex="1" parent="1">
          <mxGeometry x="429" y="380" width="120" height="60" as="geometry" />
        </mxCell>
        <mxCell id="9wF3n-dVodhA5JEzQhGD-37" value="" style="endArrow=classic;html=1;" edge="1" parent="1">
          <mxGeometry relative="1" as="geometry">
            <mxPoint x="489.5" y="440" as="sourcePoint" />
            <mxPoint x="489.5" y="500" as="targetPoint" />
          </mxGeometry>
        </mxCell>
        <mxCell id="9wF3n-dVodhA5JEzQhGD-38" value="Include" style="edgeLabel;resizable=0;html=1;align=center;verticalAlign=middle;" connectable="0" vertex="1" parent="9wF3n-dVodhA5JEzQhGD-37">
          <mxGeometry relative="1" as="geometry" />
        </mxCell>
        <mxCell id="9wF3n-dVodhA5JEzQhGD-39" value="Efetuar Compra" style="rounded=1;whiteSpace=wrap;html=1;" vertex="1" parent="1">
          <mxGeometry x="429" y="500" width="120" height="60" as="geometry" />
        </mxCell>
      </root>
    </mxGraphModel>
  </diagram>
</mxfile>
